<svg xmlns="http://www.w3.org/2000/svg" xmlns:xlink="http://www.w3.org/1999/xlink" width="817.672" height="660.676" viewBox="0 0 817.672 660.676">
  <defs>
    <linearGradient id="linear-gradient" x1="0.341" y1="0.298" x2="0.575" y2="0.466" gradientUnits="objectBoundingBox">
      <stop offset="0" stop-color="#f3f6ff"/>
      <stop offset="1" stop-color="#f4f6ff"/>
    </linearGradient>
    <linearGradient id="linear-gradient-2" x1="0.79" y1="0.162" x2="0.401" y2="0.941" gradientUnits="objectBoundingBox">
      <stop offset="0" stop-color="#a3acf3"/>
      <stop offset="1" stop-color="#757ae9"/>
    </linearGradient>
  </defs>
  <g id="Illustration_Illustration" transform="translate(-18.105 -57.224)">
    <g id="Rectangle_2" data-name="Rectangle 2" transform="translate(28.4)">
      <g id="Group_5957" data-name="Group 5957" transform="translate(0 57.224)">
        <g id="Group_3" data-name="Group 3" transform="translate(50.981 37.456)">
          <g id="Rectangle_Copy_3" data-name="Rectangle Copy 3" transform="translate(0 150.863)">
            <path id="Mask" d="M146.739,236,102,277.617V608.475h44.739Z" transform="translate(-75.989 -236)" fill="#fff"/>
            <g id="Group_5954" data-name="Group 5954" transform="translate(0 26.011)">
              <rect id="Rectangle_3" width="37.456" height="346.465" transform="translate(37.456 346.465) rotate(180)" fill="#fff"/>
            </g>
          </g>
          <g id="Rectangle_Copy_2" data-name="Rectangle Copy 2" transform="translate(27.051)">
            <path id="Mask_3" d="M172.739,91,128,132.617V614.338h44.739Z" transform="translate(-101.989 -91)" fill="#fff"/>
            <g id="Group_5955" data-name="Group 5955" transform="translate(0 26.011)">
              <rect id="Rectangle_4" width="37.456" height="497.327" transform="translate(37.456 497.327) rotate(180)" fill="#fff"/>
            </g>
          </g>
          <g id="Rectangle_Copy" data-name="Rectangle Copy" transform="translate(52.022 34.334)">
            <path id="Mask_5" d="M152,141l44.739,41.617v429.7H152Z" transform="translate(-125.989 -123.313)" fill="#fff"/>
            <g id="Group_5956" data-name="Group 5956">
              <rect id="Rectangle_5" width="37.456" height="489.004" fill="#fff"/>
            </g>
          </g>
          <g id="Group_4" data-name="Group 4" transform="translate(57.224 37.456)">
            <rect id="Rectangle_6" width="9.364" height="3.121" transform="translate(16.647)" fill="#a6bdff"/>
            <rect id="Rectangle_Copy_4" data-name="Rectangle Copy 4" width="6.243" height="3.121" transform="translate(4.162 17.687)" fill="#a6bdff"/>
            <rect id="Rectangle_Copy_6" data-name="Rectangle Copy 6" width="3.121" height="3.121" transform="translate(0 57.224)" fill="#a6bdff"/>
            <rect id="Rectangle_Copy_7" data-name="Rectangle Copy 7" width="3.121" height="3.121" transform="translate(14.566 57.224)" fill="#a6bdff"/>
            <rect id="Rectangle_Copy_8" data-name="Rectangle Copy 8" width="3.121" height="3.121" transform="translate(22.89 57.224)" fill="#a6bdff"/>
            <rect id="Rectangle_Copy_10" data-name="Rectangle Copy 10" width="3.121" height="3.121" transform="translate(12.485 67.628)" fill="#a6bdff"/>
            <rect id="Rectangle_Copy_11" data-name="Rectangle Copy 11" width="3.121" height="3.121" transform="translate(20.809 67.628)" fill="#a6bdff"/>
            <rect id="Rectangle_Copy_12" data-name="Rectangle Copy 12" width="7.283" height="3.121" transform="translate(33.294 67.628)" fill="#a6bdff"/>
            <rect id="Rectangle_Copy_13" data-name="Rectangle Copy 13" width="4.162" height="3.121" transform="translate(53.062 67.628)" fill="#a6bdff"/>
            <rect id="Rectangle_Copy_14" data-name="Rectangle Copy 14" width="14.566" height="3.121" transform="translate(24.97 88.437)" fill="#a6bdff"/>
            <rect id="Rectangle_Copy_15" data-name="Rectangle Copy 15" width="5.202" height="3.121" transform="translate(2.081 88.437)" fill="#a6bdff"/>
            <rect id="Rectangle_Copy_16" data-name="Rectangle Copy 16" width="3.121" height="3.121" transform="translate(14.566 88.437)" fill="#a6bdff"/>
            <rect id="Rectangle_Copy_17" data-name="Rectangle Copy 17" width="3.121" height="3.121" transform="translate(14.566 98.841)" fill="#a6bdff"/>
            <rect id="Rectangle_Copy_18" data-name="Rectangle Copy 18" width="3.121" height="3.121" transform="translate(4.162 98.841)" fill="#a6bdff"/>
            <rect id="Rectangle_Copy_19" data-name="Rectangle Copy 19" width="3.121" height="3.121" transform="translate(24.97 98.841)" fill="#a6bdff"/>
            <rect id="Rectangle_Copy_20" data-name="Rectangle Copy 20" width="13.526" height="3.121" transform="translate(35.375 98.841)" fill="#a6bdff"/>
            <rect id="Rectangle_Copy_21" data-name="Rectangle Copy 21" width="5.202" height="3.121" transform="translate(35.375 119.65)" fill="#a6bdff"/>
            <rect id="Rectangle_Copy_22" data-name="Rectangle Copy 22" width="5.202" height="3.121" transform="translate(35.375 140.459)" fill="#a6bdff"/>
            <rect id="Rectangle_Copy_23" data-name="Rectangle Copy 23" width="5.202" height="3.121" transform="translate(35.375 161.267)" fill="#a6bdff"/>
            <rect id="Rectangle_Copy_24" data-name="Rectangle Copy 24" width="5.202" height="3.121" transform="translate(14.566 161.267)" fill="#a6bdff"/>
            <rect id="Rectangle_Copy_25" data-name="Rectangle Copy 25" width="11.445" height="3.121" transform="translate(14.566 150.863)" fill="#a6bdff"/>
            <rect id="Rectangle_Copy_26" data-name="Rectangle Copy 26" width="5.202" height="3.121" transform="translate(24.97 192.48)" fill="#a6bdff"/>
            <rect id="Rectangle_Copy_27" data-name="Rectangle Copy 27" width="10.404" height="3.121" transform="translate(4.162 202.885)" fill="#a6bdff"/>
            <rect id="Rectangle_Copy_28" data-name="Rectangle Copy 28" width="7.283" height="3.121" transform="translate(35.375 202.885)" fill="#a6bdff"/>
            <rect id="Rectangle_Copy_29" data-name="Rectangle Copy 29" width="4.162" height="3.121" transform="translate(35.375 223.693)" fill="#a6bdff"/>
            <rect id="Rectangle_Copy_30" data-name="Rectangle Copy 30" width="4.162" height="3.121" transform="translate(35.375 244.502)" fill="#a6bdff"/>
            <rect id="Rectangle_Copy_9" data-name="Rectangle Copy 9" width="13.526" height="3.121" transform="translate(33.294 57.224)" fill="#a6bdff"/>
          </g>
        </g>
        <g id="Group_5" data-name="Group 5" transform="translate(562.875 28.092)" opacity="0.6">
          <path id="Rectangle_Copy_31" data-name="Rectangle Copy 31" d="M569,186.043,600.213,82h72.83V454.475H569Z" transform="translate(-569 -82)" fill="#fff"/>
          <path id="Rectangle_7" d="M619,186.043,671.022,82H691.83V454.475H619Z" transform="translate(-566.978 -82)" fill="#fff"/>
          <rect id="Rectangle_Copy_14_2" data-name="Rectangle Copy 14_2" width="14.566" height="3.121" transform="translate(35.375 36.415)" fill="#d0ddff"/>
          <rect id="Rectangle_Copy_32" data-name="Rectangle Copy 32" width="10.404" height="3.121" transform="translate(56.183 36.415)" fill="#d0ddff"/>
          <rect id="Rectangle_Copy_33" data-name="Rectangle Copy 33" width="10.404" height="3.121" transform="translate(24.97 46.82)" fill="#d0ddff"/>
          <rect id="Rectangle_Copy_34" data-name="Rectangle Copy 34" width="20.809" height="3.121" transform="translate(24.97 78.033)" fill="#d0ddff"/>
          <rect id="Rectangle_Copy_35" data-name="Rectangle Copy 35" width="10.404" height="3.121" transform="translate(24.97 88.437)" fill="#d0ddff"/>
          <rect id="Rectangle_Copy_36" data-name="Rectangle Copy 36" width="7.283" height="3.121" transform="translate(35.375 98.841)" fill="#d0ddff"/>
          <rect id="Rectangle_Copy_37" data-name="Rectangle Copy 37" width="10.404" height="3.121" transform="translate(14.566 109.246)" fill="#d0ddff"/>
          <rect id="Rectangle_Copy_38" data-name="Rectangle Copy 38" width="10.404" height="3.121" transform="translate(14.566 130.054)" fill="#d0ddff"/>
          <rect id="Rectangle_Copy_39" data-name="Rectangle Copy 39" width="6.243" height="3.121" transform="translate(35.375 130.054)" fill="#d0ddff"/>
          <rect id="Rectangle_Copy_40" data-name="Rectangle Copy 40" width="6.243" height="3.121" transform="translate(35.375 150.863)" fill="#d0ddff"/>
          <rect id="Rectangle_Copy_41" data-name="Rectangle Copy 41" width="16.647" height="3.121" transform="translate(24.97 171.672)" fill="#d0ddff"/>
          <rect id="Rectangle_Copy_42" data-name="Rectangle Copy 42" width="10.404" height="3.121" transform="translate(24.97 192.48)" fill="#d0ddff"/>
          <rect id="Rectangle_Copy_43" data-name="Rectangle Copy 43" width="10.404" height="3.121" transform="translate(24.97 202.885)" fill="#d0ddff"/>
          <rect id="Rectangle_Copy_44" data-name="Rectangle Copy 44" width="10.404" height="3.121" transform="translate(4.162 202.885)" fill="#d0ddff"/>
          <rect id="Rectangle_Copy_45" data-name="Rectangle Copy 45" width="6.243" height="3.121" transform="translate(15.607 223.693)" fill="#d0ddff"/>
          <rect id="Rectangle_Copy_46" data-name="Rectangle Copy 46" width="6.243" height="3.121" transform="translate(26.011 223.693)" fill="#d0ddff"/>
          <rect id="Rectangle_Copy_47" data-name="Rectangle Copy 47" width="6.243" height="3.121" transform="translate(26.011 234.098)" fill="#d0ddff"/>
          <rect id="Rectangle_Copy_48" data-name="Rectangle Copy 48" width="6.243" height="3.121" transform="translate(36.415 234.098)" fill="#d0ddff"/>
          <rect id="Rectangle_Copy_49" data-name="Rectangle Copy 49" width="6.243" height="3.121" transform="translate(36.415 244.502)" fill="#d0ddff"/>
          <rect id="Rectangle_Copy_50" data-name="Rectangle Copy 50" width="16.647" height="3.121" transform="translate(26.011 254.906)" fill="#d0ddff"/>
        </g>
        <g id="Group_5_Copy_2" data-name="Group 5 Copy 2" transform="translate(0 288.2)">
          <path id="Rectangle_Copy_31_2" data-name="Rectangle Copy 31_2" d="M28,436.043,59.213,332h72.83V704.475H28Z" transform="translate(-28 -332)" fill="#fff"/>
          <path id="Rectangle_8" d="M78,436.043,130.022,332H150.83V704.475H78Z" transform="translate(-25.978 -332)" fill="#fff"/>
          <rect id="Rectangle_Copy_14_3" data-name="Rectangle Copy 14_3" width="14.566" height="3.121" transform="translate(35.375 36.415)" fill="#d0ddff"/>
          <rect id="Rectangle_Copy_32_2" data-name="Rectangle Copy 32_2" width="10.404" height="3.121" transform="translate(56.183 36.415)" fill="#d0ddff"/>
          <rect id="Rectangle_Copy_33_2" data-name="Rectangle Copy 33_2" width="10.404" height="3.121" transform="translate(24.97 46.82)" fill="#d0ddff"/>
          <rect id="Rectangle_Copy_34_2" data-name="Rectangle Copy 34_2" width="20.809" height="3.121" transform="translate(24.97 78.033)" fill="#d0ddff"/>
          <rect id="Rectangle_Copy_35_2" data-name="Rectangle Copy 35_2" width="10.404" height="3.121" transform="translate(24.97 88.437)" fill="#d0ddff"/>
        </g>
        <g id="Group_5_Copy_3" data-name="Group 5 Copy 3" transform="translate(427.618 74.911)" opacity="0.5">
          <path id="Rectangle_Copy_31_3" data-name="Rectangle Copy 31_3" d="M439,231.043,470.213,127h72.83V499.475H439Z" transform="translate(-439 -127)" fill="#fff"/>
          <path id="Rectangle_9" d="M489,231.043,541.022,127H561.83V499.475H489Z" transform="translate(-436.978 -127)" fill="#fff"/>
          <rect id="Rectangle_Copy_14_4" data-name="Rectangle Copy 14_4" width="14.566" height="3.121" transform="translate(35.375 36.415)" fill="#d0ddff"/>
          <rect id="Rectangle_Copy_32_3" data-name="Rectangle Copy 32_3" width="10.404" height="3.121" transform="translate(56.183 36.415)" fill="#d0ddff"/>
          <rect id="Rectangle_Copy_33_3" data-name="Rectangle Copy 33_3" width="10.404" height="3.121" transform="translate(24.97 46.82)" fill="#d0ddff"/>
          <rect id="Rectangle_Copy_34_3" data-name="Rectangle Copy 34_3" width="20.809" height="3.121" transform="translate(24.97 78.033)" fill="#d0ddff"/>
          <rect id="Rectangle_Copy_35_3" data-name="Rectangle Copy 35_3" width="10.404" height="3.121" transform="translate(24.97 88.437)" fill="#d0ddff"/>
          <rect id="Rectangle_Copy_36_2" data-name="Rectangle Copy 36_2" width="7.283" height="3.121" transform="translate(35.375 98.841)" fill="#d0ddff"/>
          <rect id="Rectangle_Copy_37_2" data-name="Rectangle Copy 37_2" width="10.404" height="3.121" transform="translate(14.566 109.246)" fill="#d0ddff"/>
          <rect id="Rectangle_Copy_38_2" data-name="Rectangle Copy 38_2" width="10.404" height="3.121" transform="translate(14.566 130.054)" fill="#d0ddff"/>
          <rect id="Rectangle_Copy_39_2" data-name="Rectangle Copy 39_2" width="6.243" height="3.121" transform="translate(35.375 130.054)" fill="#d0ddff"/>
          <rect id="Rectangle_Copy_40_2" data-name="Rectangle Copy 40_2" width="6.243" height="3.121" transform="translate(35.375 150.863)" fill="#d0ddff"/>
          <rect id="Rectangle_Copy_41_2" data-name="Rectangle Copy 41_2" width="16.647" height="3.121" transform="translate(24.97 171.672)" fill="#d0ddff"/>
          <rect id="Rectangle_Copy_42_2" data-name="Rectangle Copy 42_2" width="10.404" height="3.121" transform="translate(24.97 192.48)" fill="#d0ddff"/>
          <rect id="Rectangle_Copy_43_2" data-name="Rectangle Copy 43_2" width="10.404" height="3.121" transform="translate(24.97 202.885)" fill="#d0ddff"/>
          <rect id="Rectangle_Copy_44_2" data-name="Rectangle Copy 44_2" width="10.404" height="3.121" transform="translate(4.162 202.885)" fill="#d0ddff"/>
          <rect id="Rectangle_Copy_45_2" data-name="Rectangle Copy 45_2" width="6.243" height="3.121" transform="translate(15.607 223.693)" fill="#d0ddff"/>
          <rect id="Rectangle_Copy_46_2" data-name="Rectangle Copy 46_2" width="6.243" height="3.121" transform="translate(26.011 223.693)" fill="#d0ddff"/>
          <rect id="Rectangle_Copy_47_2" data-name="Rectangle Copy 47_2" width="6.243" height="3.121" transform="translate(26.011 234.098)" fill="#d0ddff"/>
          <rect id="Rectangle_Copy_48_2" data-name="Rectangle Copy 48_2" width="6.243" height="3.121" transform="translate(36.415 234.098)" fill="#d0ddff"/>
          <rect id="Rectangle_Copy_49_2" data-name="Rectangle Copy 49_2" width="6.243" height="3.121" transform="translate(36.415 244.502)" fill="#d0ddff"/>
          <rect id="Rectangle_Copy_50_2" data-name="Rectangle Copy 50_2" width="16.647" height="3.121" transform="translate(26.011 254.906)" fill="#d0ddff"/>
        </g>
        <g id="Group_5_Copy" data-name="Group 5 Copy" transform="translate(458.831 168.55)">
          <path id="Rectangle_Copy_31_4" data-name="Rectangle Copy 31_4" d="M593.043,321.043,561.83,217H489V589.475H593.043Z" transform="translate(-468.191 -217)" fill="#fff"/>
          <path id="Rectangle_10" d="M541.83,321.043,489.809,217H469V589.475h72.83Z" transform="translate(-469 -217)" fill="#fff"/>
          <rect id="Rectangle_Copy_14_5" data-name="Rectangle Copy 14_5" width="14.566" height="3.121" transform="translate(89.477 39.536) rotate(180)" fill="#d0ddff"/>
          <rect id="Rectangle_Copy_32_4" data-name="Rectangle Copy 32_4" width="10.404" height="3.121" transform="translate(68.669 39.536) rotate(180)" fill="#d0ddff"/>
          <rect id="Rectangle_Copy_33_4" data-name="Rectangle Copy 33_4" width="10.404" height="3.121" transform="translate(99.882 49.941) rotate(180)" fill="#d0ddff"/>
          <rect id="Rectangle_Copy_34_4" data-name="Rectangle Copy 34_4" width="20.809" height="3.121" transform="translate(99.882 81.154) rotate(180)" fill="#d0ddff"/>
          <rect id="Rectangle_Copy_35_4" data-name="Rectangle Copy 35_4" width="10.404" height="3.121" transform="translate(99.882 91.558) rotate(180)" fill="#d0ddff"/>
          <rect id="Rectangle_Copy_36_3" data-name="Rectangle Copy 36_3" width="7.283" height="3.121" transform="translate(89.477 101.963) rotate(180)" fill="#d0ddff"/>
          <rect id="Rectangle_Copy_37_3" data-name="Rectangle Copy 37_3" width="10.404" height="3.121" transform="translate(110.286 112.367) rotate(180)" fill="#d0ddff"/>
          <rect id="Rectangle_Copy_38_3" data-name="Rectangle Copy 38_3" width="10.404" height="3.121" transform="translate(110.286 133.176) rotate(180)" fill="#d0ddff"/>
          <rect id="Rectangle_Copy_39_3" data-name="Rectangle Copy 39_3" width="6.243" height="3.121" transform="translate(89.477 133.176) rotate(180)" fill="#d0ddff"/>
          <rect id="Rectangle_Copy_40_3" data-name="Rectangle Copy 40_3" width="6.243" height="3.121" transform="translate(89.477 153.984) rotate(180)" fill="#d0ddff"/>
          <rect id="Rectangle_Copy_41_3" data-name="Rectangle Copy 41_3" width="16.647" height="3.121" transform="translate(99.882 174.793) rotate(180)" fill="#d0ddff"/>
          <rect id="Rectangle_Copy_42_3" data-name="Rectangle Copy 42_3" width="10.404" height="3.121" transform="translate(99.882 195.602) rotate(180)" fill="#d0ddff"/>
          <rect id="Rectangle_Copy_43_3" data-name="Rectangle Copy 43_3" width="10.404" height="3.121" transform="translate(99.882 206.006) rotate(180)" fill="#d0ddff"/>
          <rect id="Rectangle_Copy_44_3" data-name="Rectangle Copy 44_3" width="10.404" height="3.121" transform="translate(120.69 206.006) rotate(180)" fill="#d0ddff"/>
        </g>
        <g id="Group_7" data-name="Group 7" transform="translate(661.716 174.793)">
          <rect id="Rectangle_Copy_51" data-name="Rectangle Copy 51" width="145.661" height="225.774" fill="#fff"/>
          <rect id="Rectangle_11" width="83.235" height="225.774" fill="#fff"/>
          <rect id="Rectangle_Copy_41_4" data-name="Rectangle Copy 41_4" width="16.647" height="10.404" transform="translate(17.687 24.97)" fill="#d0ddff"/>
          <rect id="Rectangle_Copy_54" data-name="Rectangle Copy 54" width="16.647" height="10.404" transform="translate(17.687 66.588)" fill="#d0ddff"/>
          <rect id="Rectangle_Copy_56" data-name="Rectangle Copy 56" width="16.647" height="10.404" transform="translate(17.687 108.205)" fill="#d0ddff"/>
          <rect id="Rectangle_Copy_58" data-name="Rectangle Copy 58" width="16.647" height="10.404" transform="translate(17.687 149.822)" fill="#d0ddff"/>
        </g>
        <g id="Group_7_Copy" data-name="Group 7 Copy" transform="translate(292.362)" opacity="0.4">
          <path id="Rectangle_Copy_51_2" data-name="Rectangle Copy 51_2" d="M309,55H454.661V447.244H309Z" transform="translate(-309 -55)" fill="#fff"/>
          <path id="Rectangle_12" d="M309,55h83.235V447.244H309Z" transform="translate(-309 -55)" fill="#fff"/>
          <rect id="Rectangle_Copy_41_5" data-name="Rectangle Copy 41_5" width="16.647" height="10.404" transform="translate(17.687 24.97)" fill="#d0ddff"/>
          <rect id="Rectangle_Copy_52" data-name="Rectangle Copy 52" width="16.647" height="10.404" transform="translate(48.9 24.97)" fill="#d0ddff"/>
          <rect id="Rectangle_Copy_54_2" data-name="Rectangle Copy 54_2" width="16.647" height="10.404" transform="translate(17.687 66.588)" fill="#d0ddff"/>
          <rect id="Rectangle_Copy_53" data-name="Rectangle Copy 53" width="16.647" height="10.404" transform="translate(48.9 66.588)" fill="#d0ddff"/>
          <rect id="Rectangle_Copy_56_2" data-name="Rectangle Copy 56_2" width="16.647" height="10.404" transform="translate(17.687 108.205)" fill="#d0ddff"/>
          <rect id="Rectangle_Copy_55" data-name="Rectangle Copy 55" width="16.647" height="10.404" transform="translate(48.9 108.205)" fill="#d0ddff"/>
          <rect id="Rectangle_Copy_58_2" data-name="Rectangle Copy 58_2" width="16.647" height="10.404" transform="translate(17.687 149.822)" fill="#d0ddff"/>
          <rect id="Rectangle_Copy_57" data-name="Rectangle Copy 57" width="16.647" height="10.404" transform="translate(48.9 149.822)" fill="#d0ddff"/>
        </g>
        <g id="Rectangle_Copy_70" data-name="Rectangle Copy 70" transform="translate(307.46 149.822)" opacity="0.32">
          <path id="Path_25082" data-name="Path 25082" d="M378.938,215.728A20.809,20.809,0,0,1,399.343,199h129.1a16.646,16.646,0,0,1,16.323,19.912l-55.1,275.49a20.809,20.809,0,0,1-20.4,16.728h-129.1a16.646,16.646,0,0,1-16.323-19.912Z" transform="translate(-323.512 -199)" fill="#5778d2" fill-rule="evenodd"/>
        </g>
      </g>
    </g>
    <g id="Group_27" data-name="Group 27" transform="translate(597.867 131.208)">
      <g id="Rectangle_13" transform="translate(0 23.817)">
        <path id="Path_25083" data-name="Path 25083" d="M588.346,157.249A10.4,10.4,0,0,1,598.524,149H710.929a10.4,10.4,0,0,1,10.179,12.56l-12.78,60.345a10.4,10.4,0,0,1-10.179,8.249H585.744a10.4,10.4,0,0,1-10.179-12.56Z" transform="translate(-575.336 -149)" fill="#fff"/>
      </g>
      <path id="Rectangle_Copy_76" data-name="Rectangle Copy 76" d="M661.593,169.823A1.04,1.04,0,0,1,662.61,169H695.12a1.041,1.041,0,0,1,1.018,1.258L694.8,176.5a1.04,1.04,0,0,1-1.018.823H661.276a1.041,1.041,0,0,1-1.018-1.258Z" transform="translate(-571.903 -124.374)" fill="#dfe7ff"/>
      <path id="Rectangle_Copy_77" data-name="Rectangle Copy 77" d="M657.828,191.5a.625.625,0,0,1,.612-.5h30.2a.625.625,0,0,1,.612.751l-.822,3.954a.626.626,0,0,1-.612.5h-30.2a.625.625,0,0,1-.612-.751Z" transform="translate(-572.034 -123.485)" fill="#dfe7ff"/>
      <path id="Rectangle_Copy_78" data-name="Rectangle Copy 78" d="M654.828,203.5a.625.625,0,0,1,.612-.5h11.468a.625.625,0,0,1,.612.751L666.7,207.7a.626.626,0,0,1-.612.5H654.618a.625.625,0,0,1-.612-.751Z" transform="translate(-572.156 -122.999)" fill="#dfe7ff"/>
      <path id="Rectangle_Copy_75" data-name="Rectangle Copy 75" d="M588.346,157.249A10.4,10.4,0,0,1,598.524,149H655.1l-17.187,81.154H585.744a10.4,10.4,0,0,1-10.179-12.56Z" transform="translate(-575.336 -125.183)" fill="#e4eaff" opacity="0.5"/>
      <path id="Combined_Shape" data-name="Combined Shape" d="M648.828,155.119c-11.823,17.868-37.762,32.725-37.762,32.725s-1.507-4.509-12.613-25.318a25.066,25.066,0,0,1-2.926-13.3,10.429,10.429,0,0,1,2.182-.23h52.414Z" transform="translate(-574.521 -125.183)" fill="#fff" fill-rule="evenodd" opacity="0.2"/>
      <g id="_447031" data-name="447031" transform="translate(13.244)">
        <path id="Combined_Shape_2" data-name="Combined Shape_2" d="M618.715,138.27c1.95.616,3.833,1.182,5.511,1.674a9.579,9.579,0,0,1,3.75,9.7c-1.046,6.272-6.929,11.374-13.116,11.374s-10.369-5.1-9.323-11.374,6.928-11.375,13.116-11.375Zm-14.193-5.325a27.552,27.552,0,0,0-10.066,16.7c-2.579,15.47,13.592,38.183,14.282,39.142a1.984,1.984,0,0,0,2.988,0c1.01-.959,24.752-23.672,27.33-39.142,1.668-10.007-3.36-18.516-11.767-21.484-8.078-3.1-20.251-2.53-25.808.651C599.691,129.837,601.3,131.331,604.522,132.945Z" transform="translate(-587.819 -126.108)" fill="#fff" fill-rule="evenodd"/>
        <path id="Shape" d="M588.066,149.609a22.3,22.3,0,1,1,44.6,0c0,15.47-19.957,38.183-20.807,39.142a1.99,1.99,0,0,1-2.988,0C608.023,187.792,588.066,165.079,588.066,149.609Zm11.081,0a11.221,11.221,0,1,0,11.22-11.375A11.311,11.311,0,0,0,599.147,149.609Z" transform="translate(-588.066 -126.072)" fill="#fff" fill-rule="evenodd"/>
      </g>
    </g>
    <g id="Group_26" data-name="Group 26" transform="translate(18.105 291.054)">
      <g id="Group_30" data-name="Group 30" transform="translate(0 11.963)">
        <g id="Rectangle_Copy_71" data-name="Rectangle Copy 71" transform="translate(0 11.714)">
          <path id="Path_25084" data-name="Path 25084" d="M29.75,309.921a9.363,9.363,0,0,1,9.16-7.421h100.7a9.365,9.365,0,0,1,9.161,11.306l-11.437,53.935a9.366,9.366,0,0,1-9.161,7.421H27.473a9.364,9.364,0,0,1-9.16-11.306Z" transform="translate(-18.105 -302.5)" fill="#fff"/>
        </g>
        <g id="Group_5958" data-name="Group 5958" transform="translate(41.023)">
          <path id="Shape_2" d="M123.953,310.875l.634,3.712s9.137,3.02,8.981,3.482l-2.2,6.649c-.148.447-11.353,3.724-11.353,3.724l-3.084,3.706s1.908,8.028,1.4,8.358l-7.288,4.7c-.489.312-9.27-3.247-9.27-3.247L96.747,343.5s-6.446,8.33-7.006,8.33H81.649c-.55,0-1.783-8.306-1.783-8.306l-4-1.534s-11.018,3.743-11.3,3.425l-4.172-4.71c-.275-.315,6.769-8.51,6.769-8.51l-.637-3.7s-9.138-3.03-8.984-3.495l2.2-6.655c.146-.442,11.346-3.712,11.346-3.712l3.088-3.706s-1.9-8.034-1.393-8.358l7.281-4.7c.488-.318,9.29,3.242,9.29,3.242l5.009-1.534s6.443-8.33,7.006-8.33h8.092c.546,0,1.777,8.312,1.777,8.312l4,1.528s11.015-3.743,11.3-3.42l4.179,4.7C131,302.674,123.953,310.875,123.953,310.875ZM92.34,331.24c6.517,0,13.264-4.357,15.035-9.708s-2.09-9.7-8.609-9.7-13.262,4.35-15.033,9.7S85.83,331.24,92.34,331.24Z" transform="translate(-57.534 -291.241)" fill="#fff" fill-rule="evenodd"/>
        </g>
      </g>
      <g id="_128" data-name="128" transform="translate(24.109)">
        <g id="Group_25" data-name="Group 25">
          <path id="Shape_Copy_2" data-name="Shape Copy 2" d="M111.02,303.424l1.862,4.428s10.137,3.6,10.134,4.156v7.933c0,.534-10.12,4.442-10.12,4.442l-1.858,4.422s4.566,9.578,4.167,9.972l-5.732,5.612c-.17.163-8.453.128-8.453.128l-1.892-4-4.515,1.829s-3.689,9.937-4.249,9.937H82.272c-.55,0-4.532-9.91-4.532-9.91l-4.512-1.829s-9.779,4.466-10.168,4.087H54.606l2.722-5.618c-.379-.377,3.952-10.154,3.952-10.154l-1.861-4.415s-10.141-3.614-10.141-4.168v-7.941c0-.526,10.117-4.428,10.117-4.428l1.862-4.422S56.7,293.9,57.1,293.511L54.367,287.9H62.82c.383-.38,10.363,3.868,10.363,3.868l4.5-1.83S81.37,280,81.934,280h8.091c.547,0,4.529,9.916,4.529,9.916l4.509,1.823,1.649-4.1s8.394-.1,8.523.024l5.734,5.6C115.352,293.641,111.02,303.424,111.02,303.424Zm-24.872,24.3a11.581,11.581,0,1,0-11.821-11.582A11.719,11.719,0,0,0,86.149,327.721Z" transform="translate(-40.954 -279.733)" fill="#fff" fill-rule="evenodd"/>
          <path id="Shape_3" d="M103.02,303.167l1.862,4.428s10.137,3.6,10.134,4.154v7.933c0,.534-10.12,4.443-10.12,4.443l-1.858,4.422s4.566,9.578,4.167,9.971l-5.731,5.611c-.386.372-10.346-3.875-10.346-3.875l-4.515,1.83s-3.689,9.937-4.249,9.937H74.272c-.55,0-4.532-9.91-4.532-9.91l-4.512-1.829s-9.779,4.466-10.168,4.086l-5.731-5.618c-.379-.376,3.952-10.153,3.952-10.153l-1.861-4.415s-10.141-3.614-10.141-4.169v-7.94c0-.527,10.117-4.429,10.117-4.429l1.862-4.421s-4.556-9.586-4.16-9.973l5.724-5.611c.383-.38,10.363,3.867,10.363,3.867l4.5-1.829s3.685-9.937,4.249-9.937h8.091c.547,0,4.529,9.916,4.529,9.916l4.509,1.823s9.775-4.466,10.171-4.08l5.734,5.6C107.352,293.383,103.02,303.167,103.02,303.167Zm-24.872,24.3a11.581,11.581,0,1,0-11.821-11.582A11.719,11.719,0,0,0,78.149,327.464Z" transform="translate(-41.278 -279.743)" fill="#fff" fill-rule="evenodd"/>
        </g>
      </g>
    </g>
    <g id="Group_29" data-name="Group 29" transform="translate(590.235 306.928)">
      <g id="Group_26_2" data-name="Group 26_2">
        <path id="Path_43" data-name="Path 43" d="M654.46,332.489c0-7.461-21.445-16.037-35.371-25.746s-31.425-16.161-44.756-8.081-6,19.523,25.631,33.827S654.46,339.951,654.46,332.489Z" transform="translate(-568 -295)" fill="#f6f8ff" fill-rule="evenodd"/>
        <path id="Path_42" data-name="Path 42" d="M656.666,435.379s-.25-92.945-2.429-103.2-80.718-29.6-80.718-29.6" transform="translate(-567.777 -294.693)" fill="none" stroke="#cad1ee" stroke-width="1.28"/>
      </g>
      <g id="Group_27_2" data-name="Group 27_2" transform="translate(95.545 26.617)">
        <path id="Path_45" data-name="Path 45" d="M665.7,345.37s2.369-13.685,23.55-21.084,49.929-3.624,46.716,10.543-30.823,23.15-46.716,23.15S665.7,345.37,665.7,345.37Z" transform="translate(-659.595 -320.583)" fill="#e9edfa" fill-rule="evenodd"/>
        <path id="Path_45_Copy" data-name="Path 45 Copy" d="M665.7,345.37s2.369-13.685,23.55-21.084,49.929-3.624,46.716,10.543-30.823,23.15-46.716,23.15S665.7,345.37,665.7,345.37Z" transform="translate(-659.595 -320.583)" fill="#edf2ff" fill-rule="evenodd"/>
        <path id="Path_44" data-name="Path 44" d="M659.832,434.328s5.142-30.922,5.142-58.6-1.329-28.6,4.166-34.786,42.953-16.163,62.693-10.873" transform="translate(-659.832 -320.259)" fill="none" stroke="#cad1ee" stroke-linecap="round" stroke-linejoin="round" stroke-width="1.28"/>
      </g>
      <g id="Group_25_2" data-name="Group 25_2" transform="translate(16.269 62.165)">
        <path id="Path_47" data-name="Path 47" d="M623.936,374.565c-8.3-3.45-15.062-4.59-28.2-6.2-5.109-.624-9.96-.419-11.378,2.511-2.229,4.6,1.179,13.958,3.674,22.284,4.082,13.624,20.538-2.284,24.4-12.876s14.042-27.809,15.543-21.572S626.793,365.161,623.936,374.565Z" transform="translate(-583.637 -354.642)" fill="#b8c8f7" fill-rule="evenodd"/>
        <path id="Path_47_Copy" data-name="Path 47 Copy" d="M623.908,374.672c-8.3-3.45-15.062-4.59-28.2-6.2-5.109-.624-9.96-.419-11.378,2.511,1.249-3.35,10.262-11.433,20.269-13.49,13.837-2.845,21.851-4.911,23.353,1.326S626.765,365.268,623.908,374.672Z" transform="translate(-583.609 -354.749)" fill="#edf2ff" fill-rule="evenodd"/>
        <path id="Path_46" data-name="Path 46" d="M640.184,430.448s-13.637-49.986-18.555-60.888-19.156-10.9-19.156-10.9" transform="translate(-582.875 -354.59)" fill="none" stroke="#cad1ee" stroke-width="1.28"/>
      </g>
      <g id="Group_28" data-name="Group 28" transform="translate(101.651 85.863)">
        <path id="Path_49" data-name="Path 49" d="M678.422,379c5.646-5.247,53.128,4.594,65.7,12.785s12.617,28.1-20.166,22.21S672.776,384.245,678.422,379Z" transform="translate(-665.227 -377.526)" fill="#edf2ff" fill-rule="evenodd"/>
        <path id="Path_48" data-name="Path 48" d="M665.7,431.127s7.764-47.784,12.265-51.711,34.394,17.636,51.107,22.2,22.534,3.422,22.534,3.422" transform="translate(-665.701 -377.469)" fill="none" stroke="#b8c0e4" stroke-width="1.28"/>
      </g>
      <path id="Rectangle_14" d="M615.035,414.858H694.94v29.3a23.972,23.972,0,0,1-23.972,23.972H639.007a23.971,23.971,0,0,1-23.972-23.972Z" transform="translate(-566.098 -290.154)" fill="#fff"/>
      <path id="Rectangle_Copy_10_2" data-name="Rectangle Copy 10_2" d="M615.035,414.858H673.3v29.3a23.972,23.972,0,0,1-23.972,23.972H639.007a23.971,23.971,0,0,1-23.972-23.972Z" transform="translate(-566.098 -290.154)" fill="#fff" opacity="0.8"/>
      <path id="Path" d="M615.035,424.858H694.94" transform="translate(-566.098 -289.749)" fill="none" stroke="#fff" stroke-width="1.28"/>
    </g>
    <g id="Group_23" data-name="Group 23" transform="translate(427.558 442.403)">
      <g id="Group_18" data-name="Group 18" transform="translate(45.104 49.722)">
        <path id="Rectangle_Copy_68" data-name="Rectangle Copy 68" d="M479.38,481.448A20.809,20.809,0,0,1,489.173,479H725.351a2.081,2.081,0,0,1,.979,3.917L707.052,493.2a20.809,20.809,0,0,1-9.793,2.448H461.081a2.081,2.081,0,0,1-.979-3.917Z" transform="translate(-454.835 -472.757)" fill="#6e71d4" fill-rule="evenodd"/>
        <path id="Rectangle_15" d="M479.38,477.448A20.809,20.809,0,0,1,489.173,475H725.351a2.081,2.081,0,0,1,.979,3.917L707.052,489.2a20.809,20.809,0,0,1-9.793,2.448H461.081a2.081,2.081,0,0,1-.979-3.917Z" transform="translate(-454.835 -472.919)" fill="#fff"/>
        <g id="Group_5959" data-name="Group 5959">
          <g id="Rectangle_Copy_68_2" data-name="Rectangle Copy 68_2" opacity="0.1">
            <path id="Path_25085" data-name="Path 25085" d="M475.38,475.448A20.809,20.809,0,0,1,485.173,473H721.351a2.081,2.081,0,0,1,.979,3.917L703.052,487.2a20.808,20.808,0,0,1-9.793,2.448H457.081a2.081,2.081,0,0,1-.979-3.917Z" transform="translate(-454.997 -473)" fill="#5778d2" fill-rule="evenodd"/>
          </g>
        </g>
      </g>
      <g id="Group_18_Copy" data-name="Group 18 Copy" transform="translate(35.74 40.358)">
        <path id="Rectangle_Copy_68_3" data-name="Rectangle Copy 68_3" d="M466.38,472.448A20.809,20.809,0,0,1,476.173,470H712.351a2.081,2.081,0,0,1,.979,3.917L694.052,484.2a20.809,20.809,0,0,1-9.793,2.448H448.081a2.081,2.081,0,0,1-.979-3.917Z" transform="translate(-445.997 -463.757)" fill="#fff"/>
        <path id="Rectangle_17" d="M466.38,468.448A20.809,20.809,0,0,1,476.173,466H712.351a2.081,2.081,0,0,1,.979,3.917L694.052,480.2a20.809,20.809,0,0,1-9.793,2.448H448.081a2.081,2.081,0,0,1-.979-3.917Z" transform="translate(-445.997 -463.919)" fill="#fff"/>
        <g id="Group_5960" data-name="Group 5960" transform="translate(22.89)">
          <g id="Rectangle_Copy_68_4" data-name="Rectangle Copy 68_4" opacity="0.1">
            <path id="Path_25086" data-name="Path 25086" d="M488.38,466.448A20.809,20.809,0,0,1,498.173,464H734.351a2.081,2.081,0,0,1,.979,3.917L716.052,478.2a20.809,20.809,0,0,1-9.793,2.448H470.081a2.081,2.081,0,0,1-.979-3.917Z" transform="translate(-467.997 -464)" fill="#5778d2" fill-rule="evenodd"/>
          </g>
        </g>
      </g>
      <g id="Group_18_Copy_2" data-name="Group 18 Copy 2" transform="translate(64.872 33.075)">
        <path id="Rectangle_Copy_68_5" data-name="Rectangle Copy 68_5" d="M494.38,463.448A20.809,20.809,0,0,1,504.173,461H740.351a2.081,2.081,0,0,1,.979,3.917L722.052,475.2a20.809,20.809,0,0,1-9.793,2.448H476.081a2.081,2.081,0,0,1-.979-3.917Z" transform="translate(-473.997 -456.838)" fill="#fff"/>
        <path id="Rectangle_19" d="M494.38,459.448A20.809,20.809,0,0,1,504.173,457H740.351a2.081,2.081,0,0,1,.979,3.917L722.052,471.2a20.809,20.809,0,0,1-9.793,2.448H476.081a2.081,2.081,0,0,1-.979-3.917Z" transform="translate(-473.997 -457)" fill="#fff"/>
      </g>
      <path id="Path_39" data-name="Path 39" d="M641.9,506.819,659.7,495.7l2.687-3.875,3.572-2.7v-2.446l2.753-3.968,3.321-2.729.436-2.686,2.754-3.969,6.483-4.537-114.346-2.8v32.3Z" transform="translate(-405.349 -423.562)" fill="#fff" opacity="0.8"/>
      <g id="Group_6" data-name="Group 6" transform="translate(0 20.59)">
        <path id="Rectangle_Copy_60" data-name="Rectangle Copy 60" d="M438.808,452.8a10.406,10.406,0,0,1,9.33-5.8H671.322a6.243,6.243,0,0,1,5.6,9.006l-23.51,47.622a10.406,10.406,0,0,1-9.33,5.8H420.9a6.243,6.243,0,0,1-5.6-9.006Z" transform="translate(-411.524 -444.919)" fill="#fff"/>
        <path id="Rectangle_20" d="M435.808,450.8a10.406,10.406,0,0,1,9.33-5.8H668.322a6.243,6.243,0,0,1,5.6,9.006l-23.51,47.622a10.406,10.406,0,0,1-9.33,5.8H417.9a6.243,6.243,0,0,1-5.6-9.006Z" transform="translate(-411.646 -445)" fill="#fff"/>
        <path id="Rectangle_Copy_62" data-name="Rectangle Copy 62" d="M448.971,487.4a.8.8,0,0,1,.692-.4h61.68a.8.8,0,0,1,.691,1.2l-1.488,2.564a.8.8,0,0,1-.692.4h-61.68a.8.8,0,0,1-.691-1.2Z" transform="translate(-410.201 -443.302)" fill="#d1ddff" opacity="0.5"/>
        <path id="Rectangle_Copy_64" data-name="Rectangle Copy 64" d="M452.971,472.4a.8.8,0,0,1,.692-.4H629.791a.8.8,0,0,1,.691,1.2l-1.488,2.564a.8.8,0,0,1-.692.4H452.174a.8.8,0,0,1-.691-1.2Z" transform="translate(-410.039 -443.908)" fill="#d1ddff" opacity="0.5"/>
        <path id="Rectangle_Copy_69" data-name="Rectangle Copy 69" d="M604.331,455.334a.8.8,0,0,1,.649-.334H635.97a.8.8,0,0,1,.65,1.264l-2.584,3.6a.8.8,0,0,1-.649.334H602.4a.8.8,0,0,1-.65-1.264Z" transform="translate(-403.965 -444.596)" fill="#d1ddff" opacity="0.5"/>
        <g id="Group_17" data-name="Group 17" transform="translate(174.121 40.577)">
          <path id="Oval" d="M589.155,495.445c6.9,0,13.649-2.562,15.086-5.722S601.253,484,594.357,484s-13.649,2.562-15.086,5.722S582.26,495.445,589.155,495.445Z" transform="translate(-579 -484)" fill="#cbd9ff" opacity="0.34"/>
          <path id="Oval_Copy_4" data-name="Oval Copy 4" d="M602.155,495.445c6.9,0,13.649-2.562,15.086-5.722S614.253,484,607.357,484s-13.649,2.562-15.086,5.722S595.26,495.445,602.155,495.445Z" transform="translate(-578.474 -484)" fill="#baceff" opacity="0.34"/>
        </g>
        <g id="Rectangle_Copy_65" data-name="Rectangle Copy 65" transform="translate(39.905 9.364)">
          <path id="Rectangle_Copy_62_2" data-name="Rectangle Copy 62_2" d="M459.07,454.951a1.665,1.665,0,0,1,1.5-.951H485a1.665,1.665,0,0,1,1.5,2.378l-3.361,7.075a1.665,1.665,0,0,1-1.5.951H457.214a1.665,1.665,0,0,1-1.5-2.378Z" transform="translate(-449.776 -454)" fill="#d1ddff"/>
          <g id="Group_5961" data-name="Group 5961" transform="translate(0 1.561)">
            <path id="Rectangle_21" d="M476.121,458.5h13.357a1.04,1.04,0,1,1,0,2.081H476.121a1.04,1.04,0,1,1,0-2.081Z" transform="translate(-448.986 -455.379)" fill="none" stroke="#fefeff" stroke-width="1"/>
            <path id="Rectangle_Copy_66" data-name="Rectangle Copy 66" d="M451.121,458.5h13.357a1.04,1.04,0,1,1,0,2.081H451.121a1.04,1.04,0,1,1,0-2.081Z" transform="translate(-449.997 -455.379)" fill="none" stroke="#fefeff" stroke-width="1"/>
            <path id="Rectangle_Copy_67" data-name="Rectangle Copy 67" d="M453.121,455.5h13.357a1.04,1.04,0,1,1,0,2.081H453.121a1.04,1.04,0,1,1,0-2.081Z" transform="translate(-449.916 -455.5)" fill="none" stroke="#fefeff" stroke-width="1"/>
            <path id="Path_15" data-name="Path 15" d="M463.886,460.473s-3.016,2.389,4.123,2.631,7.466-3.1,7.466-3.1" transform="translate(-449.464 -455.318)" fill="none" stroke="#fefeff" stroke-width="1"/>
            <path id="Path_19" data-name="Path 19" d="M474,461.983l13.526.035" transform="translate(-449.03 -455.238)" fill="none" stroke="#fefeff" stroke-linecap="round" stroke-linejoin="round" stroke-width="1"/>
            <path id="Path_19_Copy" data-name="Path 19 Copy" d="M450,461.983l13.526.035" transform="translate(-450 -455.238)" fill="none" stroke="#fefeff" stroke-linecap="round" stroke-linejoin="round" stroke-width="1"/>
          </g>
        </g>
      </g>
      <g id="Group_19" data-name="Group 19" transform="translate(237.751)">
        <path id="Path_42_2" data-name="Path 42_2" d="M664.24,452.007l67.7,61.368" transform="translate(-639.183 -424.126)" fill="none" stroke="#a0beff" stroke-linecap="round" stroke-linejoin="round" stroke-width="1"/>
        <path id="Path_43_2" data-name="Path 43_2" d="M691.273,425.21l-3.251,91.146" transform="translate(-638.222 -425.21)" fill="none" stroke="#a0beff" stroke-linecap="round" stroke-linejoin="round" stroke-width="1"/>
        <path id="Path_44_2" data-name="Path 44_2" d="M640.157,507.378l82.41-51.224" transform="translate(-640.157 -423.959)" fill="none" stroke="#a0beff" stroke-linecap="round" stroke-linejoin="round" stroke-width="1"/>
        <path id="Path_45_2" data-name="Path 45_2" d="M652.761,474.814h58.77" transform="translate(-639.647 -423.204)" fill="none" stroke="#a0beff" stroke-linecap="round" stroke-linejoin="round" stroke-width="1"/>
        <path id="Path_46_2" data-name="Path 46_2" d="M677.906,482.412s4.07,1.54,5.974,2.466,5.449,3.088,5.449,3.088a45.464,45.464,0,0,1,3.955-3.088c1.471-.93,4.83-2.466,4.83-2.466a12.9,12.9,0,0,1-.478-3.746,15.007,15.007,0,0,1,1.447-3.693,4.257,4.257,0,0,1-.97-1.914,17.219,17.219,0,0,1,0-3.337,39.683,39.683,0,0,1-4.325-2.575,33.765,33.765,0,0,1-3.4-3.355s-2.583,2.732-4.281,3.355-4.858,0-4.858,0a20.751,20.751,0,0,1-1.434,4.281,23.748,23.748,0,0,1-3.111,3.545,23.759,23.759,0,0,1,1.206,3.693A21.156,21.156,0,0,1,677.906,482.412Z" transform="translate(-638.679 -423.65)" fill="none" stroke="#a0beff" stroke-linecap="round" stroke-linejoin="round" stroke-width="1"/>
        <path id="Path_47_2" data-name="Path 47_2" d="M664.4,475.72a49.694,49.694,0,0,1,1.78,7.141,70.547,70.547,0,0,1,0,8.237s7.83.776,12.078,2.779,11.137,8.168,11.137,8.168,6.583-5.338,10.3-6.839,9.934-1.33,9.934-1.33-.418-11.495,0-17.261a119.65,119.65,0,0,1,2.267-14s-7.545-2.505-11.121-5.256-9.79-10.828-9.79-10.828-4.509,5.453-8.063,7.654-11.624,4.536-11.624,4.536a48.84,48.84,0,0,1-1.987,8.974C668.088,470.7,664.4,475.72,664.4,475.72Z" transform="translate(-639.177 -424.348)" fill="none" stroke="#a0beff" stroke-linecap="round" stroke-linejoin="round" stroke-width="1"/>
        <path id="Path_49_2" data-name="Path 49_2" d="M654.214,474.666a127.6,127.6,0,0,1,0,13.235,80.375,80.375,0,0,1-2.391,11.179s2.635,6.847,4.49,7.826a32.058,32.058,0,0,0,4.275,1.763" transform="translate(-639.685 -423.21)" fill="none" stroke="#a0beff" stroke-linecap="round" stroke-linejoin="round" stroke-width="1"/>
        <path id="Path_50" data-name="Path 50" d="M686.65,511.345,688.264,509s8.615-4.535,14.257-5.8,17.253-2.374,17.253-2.374,1.072,5.926,0,7.06a5.858,5.858,0,0,1-2.1,1.488" transform="translate(-638.277 -422.153)" fill="none" stroke="#a0beff" stroke-linecap="round" stroke-linejoin="round" stroke-width="1"/>
        <path id="Path_51" data-name="Path 51" d="M719.293,455.977v6.987" transform="translate(-636.957 -423.966)" fill="none" stroke="#a0beff" stroke-linecap="round" stroke-linejoin="round" stroke-width="1"/>
        <path id="Path_52" data-name="Path 52" d="M721.871,456.859s-28.5-17.041-29.845-27.781C678.7,446.765,662.3,447.736,662.3,447.736" transform="translate(-639.261 -425.054)" fill="none" stroke="#a0beff" stroke-linecap="round" stroke-linejoin="round" stroke-width="1"/>
      </g>
    </g>
    <g id="Group_15" data-name="Group 15" transform="translate(83.543 123.84)">
      <path id="Oval_2" d="M162.154,564.93c44.82,0,81.154-5.357,81.154-11.965S206.974,541,162.154,541,81,546.357,81,552.965,117.334,564.93,162.154,564.93Z" transform="translate(-81 -101.965)" fill="#e5ecff" opacity="0.6"/>
      <path id="Oval_Copy" data-name="Oval Copy" d="M364.367,554.93c62.059,0,112.367-5.357,112.367-11.965S426.426,531,364.367,531,252,536.357,252,542.965,302.308,554.93,364.367,554.93Z" transform="translate(-74.086 -102.369)" fill="#e5ecff" opacity="0.4"/>
      <g id="Group_11" data-name="Group 11" transform="translate(146.008 21.821)">
        <path id="Rectangle_Copy_5" data-name="Rectangle Copy 5" d="M338.938,195.728A20.809,20.809,0,0,1,359.343,179h129.1a16.646,16.646,0,0,1,16.323,19.912l-55.1,275.49a20.809,20.809,0,0,1-20.4,16.728h-129.1a16.646,16.646,0,0,1-16.323-19.912Z" transform="translate(-218.819 -138.423)" fill="#051e44" fill-rule="evenodd"/>
        <g id="Rectangle_Copy_61_Rectangle_Copy_59_Mask" data-name="Rectangle Copy 61 + Rectangle Copy 59 Mask" transform="translate(0)">
          <path id="Mask_7" d="M332.938,189.728A20.809,20.809,0,0,1,353.343,173h129.1a16.646,16.646,0,0,1,16.323,19.912l-55.1,275.49a20.809,20.809,0,0,1-20.4,16.728h-129.1a16.646,16.646,0,0,1-16.323-19.912Z" transform="translate(-219.062 -138.666)" fill="#fff"/>
          <g id="Group_5963" data-name="Group 5963">
            <path id="Oval_Copy_3" data-name="Oval Copy 3" d="M350.395,466.97c6.895,0,13.649-5.59,15.086-12.485S362.492,442,355.6,442s-13.649,5.59-15.086,12.485S343.5,466.97,350.395,466.97Z" transform="translate(-216.526 -127.789)" fill="#5937da" opacity="0.2"/>
            <path id="Oval_3" d="M351.395,467.97c6.895,0,13.649-5.59,15.086-12.485S363.492,443,356.6,443s-13.649,5.59-15.086,12.485S344.5,467.97,351.395,467.97Z" transform="translate(-216.485 -127.748)" fill="#fcfdff"/>
            <path id="Rectangle_Copy_61" data-name="Rectangle Copy 61" d="M335.747,195.342a4.161,4.161,0,0,1,4.08-3.342H487.97a4.161,4.161,0,0,1,4.08,4.982L442.269,444.6a4.161,4.161,0,0,1-4.08,3.342H290.046a4.161,4.161,0,0,1-4.08-4.982Z" transform="translate(-218.724 -137.897)" fill="#757ae9" fill-rule="evenodd"/>
            <path id="Rectangle_Copy_59" data-name="Rectangle Copy 59" d="M335.668,239.939a6.242,6.242,0,0,1,6.1-4.939H467.291a6.243,6.243,0,0,1,6.105,7.546L458.283,313.3a6.242,6.242,0,0,1-6.1,4.939H326.66a6.243,6.243,0,0,1-6.105-7.546Z" transform="translate(-217.327 -136.159)" fill="#4348bf" opacity="0.4"/>
            <g id="Rectangle_Copy_60_2" data-name="Rectangle Copy 60_2" opacity="0.6">
              <path id="Path_25087" data-name="Path 25087" d="M247.977,148.251A10.406,10.406,0,0,1,258.157,140H476.583a10.4,10.4,0,0,1,10.179,12.558L460.347,277.41a10.406,10.406,0,0,1-10.18,8.251H231.741A10.4,10.4,0,0,1,221.563,273.1Z" transform="translate(-221.334 -140)" fill="#1d147d" fill-rule="evenodd"/>
            </g>
            <path id="Path_20" data-name="Path 20" d="M499.046,167.7,292,498.88l195.6,19.768,24.97-351.189Z" transform="translate(-218.476 -138.89)" fill="#fff" opacity="0.2"/>
            <g id="Path_53" data-name="Path 53" transform="translate(73.524 129.633)">
              <g id="Group_5962" data-name="Group 5962">
                <g id="Group_24" data-name="Group 24" transform="translate(0 47.241)" opacity="0.2">
                  <path id="Path_21" data-name="Path 21" d="M372.577,394h44.3l-5.366,11.44H449.2" transform="translate(-288.742 -306.603)" fill="none" stroke="#fbfcff" stroke-linecap="round" stroke-linejoin="round" stroke-width="4"/>
                  <path id="Path_54" data-name="Path 54" d="M423.526,405,410,443.5" transform="translate(-287.229 -306.159)" fill="none" stroke="#fbfcff" stroke-linecap="round" stroke-linejoin="round" stroke-width="4"/>
                  <path id="Path_55" data-name="Path 55" d="M414,395.746,431.763,342h60.269" transform="translate(-287.067 -308.706)" fill="none" stroke="#fbfcff" stroke-linecap="round" stroke-linejoin="round" stroke-width="4"/>
                  <path id="Path_56" data-name="Path 56" d="M346.083,358.9H318.6L302.928,310" transform="translate(-291.558 -310)" fill="none" stroke="#fbfcff" stroke-linecap="round" stroke-linejoin="round" stroke-width="4"/>
                  <path id="Path_57" data-name="Path 57" d="M319.043,357l-20.229,57.224v11.445L292,448.558" transform="translate(-292 -308.1)" fill="none" stroke="#fbfcff" stroke-linecap="round" stroke-linejoin="round" stroke-width="4"/>
                  <path id="Path_58" data-name="Path 58" d="M374.191,316.334h92.274" transform="translate(-288.677 -309.744)" fill="none" stroke="#fbfcff" stroke-linecap="round" stroke-linejoin="round" stroke-width="4"/>
                </g>
                <path id="Path_53_2" data-name="Path 53_2" d="M354.74,447.092l18.815-46.2a5.2,5.2,0,0,0-4.817-7.164H341.359a5.2,5.2,0,0,1-5.012-6.6l6.33-22.789a5.2,5.2,0,0,1,3.466-3.575l18.728-5.83a5.2,5.2,0,0,0,3.551-3.928L386.06,264.6" transform="translate(-290.215 -264.595)" fill="none" stroke="#bbbef4" stroke-linecap="round" stroke-linejoin="round" stroke-width="4"/>
              </g>
            </g>
          </g>
        </g>
      </g>
      <g id="Group_6_2" data-name="Group 6_2" transform="translate(142.886 19.74)">
        <path id="Rectangle_Copy_60_3" data-name="Rectangle Copy 60_3" d="M248.977,149.251A10.406,10.406,0,0,1,259.157,141H477.583a10.4,10.4,0,0,1,10.179,12.558L461.347,278.41a10.406,10.406,0,0,1-10.18,8.251H232.741A10.4,10.4,0,0,1,222.563,274.1Z" transform="translate(-218.172 -137.879)" fill="#19ceaf" fill-rule="evenodd"/>
        <path id="Rectangle_22" d="M244.977,146.251A10.406,10.406,0,0,1,255.157,138H473.583a10.4,10.4,0,0,1,10.179,12.558L457.347,275.41a10.406,10.406,0,0,1-10.18,8.251H228.741A10.4,10.4,0,0,1,218.563,271.1Z" transform="translate(-218.334 -138)" fill="#fff"/>
        <path id="Rectangle_Copy_62_4" data-name="Rectangle Copy 62_4" d="M257.073,240.618a.8.8,0,0,1,.778-.618H319.74a.8.8,0,0,1,.778.98l-2.044,8.806a.8.8,0,0,1-.778.618H255.807a.8.8,0,0,1-.778-.98Z" transform="translate(-216.851 -133.876)" fill="#d1ddff" opacity="0.5"/>
        <path id="Rectangle_Copy_63" data-name="Rectangle Copy 63" d="M263.093,204.647a.8.8,0,0,1,.785-.647H436.065a.8.8,0,0,1,.784.951l-2.107,10.887a.8.8,0,0,1-.785.647H261.771a.8.8,0,0,1-.784-.951Z" transform="translate(-216.61 -135.331)" fill="#d1ddff" opacity="0.5"/>
        <g id="Group_17_2" data-name="Group 17_2" transform="translate(175.486 98.841)">
          <path id="Oval_4" d="M397.155,257.97c6.9,0,13.649-5.59,15.086-12.485S409.253,233,402.357,233s-13.649,5.59-15.086,12.485S390.26,257.97,397.155,257.97Z" transform="translate(-387 -233)" fill="#19ceaf" opacity="0.34"/>
          <path id="Oval_Copy_4_2" data-name="Oval Copy 4_2" d="M410.155,257.97c6.9,0,13.649-5.59,15.086-12.485S422.253,233,415.357,233s-13.649,5.59-15.086,12.485S403.26,257.97,410.155,257.97Z" transform="translate(-386.474 -233)" fill="#757ae9" opacity="0.34"/>
        </g>
        <g id="Rectangle_Copy_65_2" data-name="Rectangle Copy 65_2" transform="translate(41.219 33.294)">
          <path id="Rectangle_Copy_62_5" data-name="Rectangle Copy 62_5" d="M266.678,171.311A1.665,1.665,0,0,1,268.3,170h24.909a1.665,1.665,0,0,1,1.626,2.018l-4.254,19.56a1.665,1.665,0,0,1-1.626,1.311H264.05a1.665,1.665,0,0,1-1.626-2.018Z" transform="translate(-257.771 -170)" fill="#d1ddff"/>
          <g id="Group_5964" data-name="Group 5964" transform="translate(0 3.642)">
            <path id="Rectangle_23" d="M285.206,178.5h11.373a2.081,2.081,0,0,1,2.053,2.423l-.174,1.04A2.081,2.081,0,0,1,296.4,183.7H285.032a2.081,2.081,0,0,1-2.053-2.423l.174-1.04A2.081,2.081,0,0,1,285.206,178.5Z" transform="translate(-256.939 -173.298)" fill="none" stroke="#fefeff" stroke-width="1"/>
            <path id="Rectangle_Copy_66_2" data-name="Rectangle Copy 66_2" d="M260.206,178.5h11.373a2.081,2.081,0,0,1,2.053,2.423l-.174,1.04A2.081,2.081,0,0,1,271.4,183.7H260.032a2.081,2.081,0,0,1-2.053-2.423l.174-1.04A2.081,2.081,0,0,1,260.206,178.5Z" transform="translate(-257.95 -173.298)" fill="none" stroke="#fefeff" stroke-width="1"/>
            <path id="Rectangle_Copy_67_2" data-name="Rectangle Copy 67_2" d="M262.206,173.5h11.373a2.081,2.081,0,0,1,2.053,2.423l-.174,1.04A2.081,2.081,0,0,1,273.4,178.7H262.032a2.081,2.081,0,0,1-2.053-2.423l.174-1.04A2.081,2.081,0,0,1,262.206,173.5Z" transform="translate(-257.869 -173.5)" fill="none" stroke="#fefeff" stroke-width="1"/>
            <path id="Path_15_2" data-name="Path 15_2" d="M272.191,183.04s-2.936,5.2,4.016,5.733,7.271-6.765,7.271-6.765" transform="translate(-257.399 -173.156)" fill="none" stroke="#fefeff" stroke-width="1"/>
            <path id="Path_19_2" data-name="Path 19_2" d="M281,187.463l13.506.077" transform="translate(-257.018 -172.935)" fill="none" stroke="#fefeff" stroke-linecap="round" stroke-linejoin="round" stroke-width="1"/>
            <path id="Path_19_Copy_2" data-name="Path 19 Copy_2" d="M259,187.463l13.506.077" transform="translate(-257.908 -172.935)" fill="none" stroke="#fefeff" stroke-linecap="round" stroke-linejoin="round" stroke-width="1"/>
          </g>
        </g>
      </g>
      <g id="Group_3_Copy_15" data-name="Group 3 Copy 15" transform="translate(12.502)">
        <g id="Group_37" data-name="Group 37">
          <g id="Group_Copy" data-name="Group Copy" transform="translate(42.532)">
            <path id="Path_5" data-name="Path 5" d="M167.659,123.916s3.382-4.889,13.308-4.889,29.621,23.8,28.911,33.733-9.734,11.708-9.1,16.865,10.246,14.643,9.1,22.749-6.888,7.807-5.976,13.48,3.823,14.471-.808,20.107S133.9,211.9,133.9,198.4s11.79-15.353,11.217-26.366-3.051-13.409-1.525-22.918,9.518-21.786,14.928-24.779S167.659,123.916,167.659,123.916Z" transform="translate(-133.895 -119.027)" fill="#051e44" fill-rule="evenodd"/>
            <path id="Path_162" data-name="Path 162" d="M205.833,207.484s7.782-15.7-1.4-27.412-7.078-15.251-7.078-15.251" transform="translate(-131.338 -117.175)" fill="none" stroke="#1d4a8f" stroke-linecap="round" stroke-linejoin="round" stroke-width="0.64"/>
            <path id="Path_160" data-name="Path 160" d="M169.2,131.117s2.634-5.708,8.909-4.215,11.785,8.826,15.469,16.28c5.864,11.861-5.551,20.992-4.627,24.783s8.931,17.877-3.651,20.935" transform="translate(-132.467 -118.719)" fill="none" stroke="#051e44" stroke-linecap="round" stroke-linejoin="round" stroke-width="0.64"/>
            <g id="Group_2" data-name="Group 2" transform="translate(21.599 10.609)">
              <path id="Path_9" data-name="Path 9" d="M176.655,175.3a95.553,95.553,0,0,0,0,10.013c.3,5.013,5.383,8.145,5.383,8.145s5.036,7.944-3.244,8.353-24.139-10.826-24.139-10.826,4.5-1.626,7.139-9.077-1.749-23.636-1.749-23.636Z" transform="translate(-154.655 -128.05)" fill="#ffbe90" fill-rule="evenodd"/>
              <g id="Group_5965" data-name="Group 5965" transform="translate(7.629)">
                <path id="Path_2" data-name="Path 2" d="M193.737,146.767a102,102,0,0,1-.717,17.25c-1.192,8.188-8.136,17.307-12.877,18.17s-13.509-2.808-16.332-11.9-1.525-16.83-1.525-22.2.938-18.864,13.817-18.864S193.737,146.767,193.737,146.767Z" transform="translate(-161.988 -129.224)" fill="#ed9276" fill-rule="evenodd"/>
              </g>
            </g>
            <path id="Path_2_2" data-name="Path 2_2" d="M193.951,143.15a102.012,102.012,0,0,1-.717,17.251c-1.192,8.187-8.136,17.307-12.877,18.17s-13.72-3.806-17.962-11.874a20.8,20.8,0,0,1-2.659-8.211c-.444-5.841-3.055-10.42-3.055-13.992,0-5.372,6.758-18.886,19.636-18.886S193.951,143.15,193.951,143.15Z" transform="translate(-132.974 -118.761)" fill="#ffbe90" fill-rule="evenodd"/>
            <path id="Path_2_Copy" data-name="Path 2 Copy" d="M176.213,176.741A23.89,23.89,0,0,1,162.2,165.153q-.359-.685-.683-1.361" transform="translate(-132.778 -117.217)" fill="none" stroke="#e07144" stroke-linecap="round" stroke-linejoin="round" stroke-width="0.576"/>
            <g id="Group_9" data-name="Group 9" transform="translate(22.341 7.217)">
              <path id="Path_3" data-name="Path 3" d="M169.874,131.319a24.119,24.119,0,0,1,13.607,2.547c5.16,2.675,9.846,7.309,10.613,9.933a42.279,42.279,0,0,1,1.093,4.654,22,22,0,0,0-3.53-16.565c-5.647-8.553-21.784-5.329-21.784-5.329s-8.106-1.807-12.08,5.329-1.867,15.605-1.867,15.605,4.387,2.507,8.306-2.675S166.248,134.874,169.874,131.319Z" transform="translate(-155.368 -125.963)" fill="#000e24" fill-rule="evenodd"/>
              <g id="Group_5966" data-name="Group 5966" transform="translate(18.211 3.543)">
                <path id="Path_40" data-name="Path 40" d="M172.871,131.552s5.141-5.315,14.242.64" transform="translate(-172.871 -129.369)" fill="none" stroke="#051e44" stroke-linecap="round" stroke-linejoin="round" stroke-width="0.64"/>
                <path id="Path_41" data-name="Path 41" d="M178.942,132.694s4.844-1.362,12.755,6.7" transform="translate(-172.626 -129.238)" fill="none" stroke="#051e44" stroke-linecap="round" stroke-linejoin="round" stroke-width="0.64"/>
              </g>
            </g>
            <path id="Path_3_Copy" data-name="Path 3 Copy" d="M169.894,131.379c1.422-5.726,9.726-5.726,13.9-2.033s9.556,11.89,10.324,14.514a57.373,57.373,0,0,1,1.1,8.862s3.128-12.79-2.52-21.343-22.8-6.758-22.8-6.758-8.972-.379-12.946,6.758-1,16.176-1,16.176,4.387,2.506,8.306-2.675S166.268,134.935,169.894,131.379Z" transform="translate(-133.047 -118.807)" fill="#051e44" fill-rule="evenodd"/>
            <path id="Path_160_2" data-name="Path 160_2" d="M169.2,131.117s2.634-5.708,8.909-4.215,11.785,8.826,15.469,16.28a15.345,15.345,0,0,1,1.446,9.676" transform="translate(-132.467 -118.719)" fill="none" stroke="#1d4a8f" stroke-linecap="round" stroke-linejoin="round" stroke-width="0.64"/>
            <path id="Path_48_2" data-name="Path 48_2" d="M169.509,131.074a17.666,17.666,0,0,0-1.594,6.869c-.241,4.358-.563,8.558-3.292,10.086s-4.364-.088-5.728-.587" transform="translate(-132.884 -118.54)" fill="none" stroke="#051e44" stroke-linecap="round" stroke-linejoin="round" stroke-width="0.64"/>
            <path id="Path_4" data-name="Path 4" d="M159.934,147.509s-2.82-2.306-4.68-.259,1.029,9.49,2.917,10.307,1.762-.814,1.762-.814Z" transform="translate(-133.056 -117.92)" fill="#ffbe90" fill-rule="evenodd"/>
            <path id="Path_6" data-name="Path 6" d="M183.354,149.7s.379,10.248.379,10.828-2.759,1.714-2.759,1.714" transform="translate(-131.991 -117.787)" fill="none" stroke="#e07144" stroke-linecap="round" stroke-linejoin="round" stroke-width="0.691"/>
            <path id="Mask_10" d="M174.659,151.194a1.377,1.377,0,1,1,1.077-1.344A1.234,1.234,0,0,1,174.659,151.194Z" transform="translate(-132.29 -117.835)" fill-rule="evenodd"/>
            <path id="Oval_Copy_2" data-name="Oval Copy 2" d="M189.011,152.342A1.377,1.377,0,1,1,190.088,151,1.232,1.232,0,0,1,189.011,152.342Z" transform="translate(-131.71 -117.789)" fill-rule="evenodd"/>
            <path id="Path_7" data-name="Path 7" d="M177.7,145.322a10.644,10.644,0,0,0-4.677-.671,7.712,7.712,0,0,0-3.514,1.527" transform="translate(-132.455 -117.994)" fill="none" stroke="#051e44" stroke-linecap="round" stroke-linejoin="round" stroke-width="1.037"/>
            <path id="Path_8" data-name="Path 8" d="M186.39,145.712a10.826,10.826,0,0,1,3.645-.158,6.121,6.121,0,0,1,2.695,1.872" transform="translate(-131.772 -117.959)" fill="none" stroke="#051e44" stroke-linecap="round" stroke-linejoin="round" stroke-width="1.037"/>
            <path id="Path_10" data-name="Path 10" d="M184.672,166.871a6.206,6.206,0,0,1-3.856.669,9.78,9.78,0,0,1-4.318-2.3" transform="translate(-132.172 -117.158)" fill="none" stroke="#707070" stroke-linecap="round" stroke-linejoin="round" stroke-width="1.152"/>
            <path id="Path_23" data-name="Path 23" d="M159.062,152.813s-.9-.879-.449-1.744a2.078,2.078,0,0,0-.979-2.855c-1.262-.532-1.468,0-1.468,0" transform="translate(-132.995 -117.856)" fill="none" stroke="#e07144" stroke-linecap="round" stroke-linejoin="round" stroke-width="0.576"/>
            <path id="Path_161" data-name="Path 161" d="M168.3,127.785s2.676-4.1,9.844-4.47,21.442,13.769,25.633,24.62-8.84,13.528-9.885,19.115,10.6,21.3,3.014,30.543" transform="translate(-132.504 -118.854)" fill="none" stroke="#1d4a8f" stroke-linecap="round" stroke-linejoin="round" stroke-width="0.64"/>
          </g>
          <g id="Group_22" data-name="Group 22" transform="translate(88.612 70.953)">
            <g id="Group_21" data-name="Group 21" transform="translate(67.099)">
              <path id="Path_63" data-name="Path 63" d="M245.786,224.635c-2.169-1.3-3.5-3.395-3.006-5.061s2.814-3.571,2.814-6.8c0-.815-.861-5.814-.5-7.76.692-3.728,0-6.891,0-8.8,1.191-1.456,3.389,1.6,3.389,3.427a11.908,11.908,0,0,0,.332,3.233,6.018,6.018,0,0,0,.971,1.947c.548-.41,3.309-5.371,4.045-7.17s2.057-7.972,2.734-9.507c.266-.6,1.459-1.05,1.955-.447.137.166.053.651,0,.99.2-1.015,1.426-1.938,2.3-1.206.214.215-.028,1.883-.171,3.259.542-.427,1.528-.427,1.528.2,0,2.216-.986,5.678-1.358,8.017a32,32,0,0,1,.389,6.418c-.143,1.423-.349,4.459-5.65,11.684-1.429,1.578-4,6.43-4.621,7.621S247.955,225.935,245.786,224.635Z" transform="translate(-242.676 -187.223)" fill="#ffbe90" fill-rule="evenodd"/>
              <path id="Path_18" data-name="Path 18" d="M258.1,188.51s-.849,4.744-1.3,6.669-1.654,5.673-1.654,5.673" transform="translate(-242.172 -187.171)" fill="none" stroke="#e07144" stroke-linecap="round" stroke-linejoin="round" stroke-width="0.576"/>
              <path id="Path_65" data-name="Path 65" d="M260.067,190.621c-.822.536-1.492,3.048-1.731,4.462a48.406,48.406,0,0,1-2.246,7.967" transform="translate(-242.133 -187.085)" fill="none" stroke="#e07144" stroke-linecap="round" stroke-linejoin="round" stroke-width="0.576"/>
              <g id="Path_64" data-name="Path 64" transform="translate(15.402 7.4)">
                <path id="Path_25088" data-name="Path 25088" d="M260.179,198.658s-.5-2.95-.793-4.216c-1.161-.441-1.759.437-1.544,3.57.051.745.264,2.048.249,2.746a14.562,14.562,0,0,1-.612,4.62" transform="translate(-257.479 -194.336)" fill="#ffbe90" fill-rule="evenodd"/>
                <path id="Path_25089" data-name="Path 25089" d="M260.179,198.658s-.5-2.95-.793-4.216c-1.161-.441-1.759.437-1.544,3.57.051.745.264,2.048.249,2.746a14.562,14.562,0,0,1-.612,4.62" transform="translate(-257.479 -194.336)" fill="none" stroke="#e07144" stroke-linecap="round" stroke-linejoin="round" stroke-width="0.576"/>
              </g>
              <path id="Path_66" data-name="Path 66" d="M248.318,200.422s-.35.252-1.146,0" transform="translate(-242.494 -186.689)" fill="none" stroke="#e07144" stroke-linecap="round" stroke-linejoin="round" stroke-width="0.576"/>
            </g>
            <g id="Group_51" data-name="Group 51" transform="translate(55.866 29.407)">
              <path id="Path_92" data-name="Path 92" d="M238.73,223.832l4.38-6.653,9.548,6.486-3.768,7.669Z" transform="translate(-231.603 -215.419)" fill="#19ceaf" fill-rule="evenodd"/>
              <g id="Group_5967" data-name="Group 5967">
                <path id="Path_93" data-name="Path 93" d="M252.136,229.462,231.88,215.487l16.381,24.6Z" transform="translate(-231.88 -215.487)" fill="#5636d8" fill-rule="evenodd" opacity="0.5"/>
              </g>
            </g>
            <g id="Group_61" data-name="Group 61" transform="translate(0 4.193)">
              <path id="Path_17" data-name="Path 17" d="M196.272,194.91c3.681,2.5,6.248,6.384,9.125,18.793s9.852,42.461,9.852,42.461,24.892-30,26.947-33.736c3.092,2.433,5.634,4.918,10.506,8.973-.7,3.109-28.121,53.593-41.8,49.131s-18.754-42.995-22.521-52.087c-3.069-7.408-13.053-29.226-9.413-36.8C179.8,189.919,195.59,194.447,196.272,194.91Z" transform="translate(-178.185 -191.253)" fill="#757ae9" fill-rule="evenodd"/>
              <g id="Group_5968" data-name="Group 5968" transform="translate(14.876 8.584)">
                <path id="Shape_4" d="M213.808,254.953q24.892-30,26.947-33.736c3.092,2.433,7.795,6.742,12.667,10.8" transform="translate(-191.621 -198.625)" fill="none" stroke="#000" stroke-linecap="round" stroke-width="0.8"/>
                <path id="Path_67" data-name="Path 67" d="M214.016,253.229a35.09,35.09,0,0,0-2.777,9.365" transform="translate(-191.725 -197.331)" fill="none" stroke="#051e44" stroke-linecap="round" stroke-width="0.8"/>
                <path id="Path_30" data-name="Path 30" d="M197.149,199.5S207.6,234.476,207.6,251.561s1.144,34.56,1.144,34.56l-16.266-12.743Z" transform="translate(-192.483 -199.503)" fill="#fff" fill-rule="evenodd" opacity="0.4"/>
              </g>
            </g>
            <path id="Shape_5" d="M213.808,254.953q24.892-30,26.947-33.736c3.092,2.433,5.634,4.926,10.506,8.981" transform="translate(-176.744 -185.848)" fill="none" stroke="#051e44" stroke-linecap="round" stroke-linejoin="round" stroke-width="0.8"/>
          </g>
          <path id="Path_27" data-name="Path 27" d="M177.872,189.419s7.17,5.849,13.175,17.07,11.818,20.841,11.818,27.411-.5,30.358-.5,46.989,4.194,25.7,4.194,25.7a74.808,74.808,0,0,1-19.413-2.576C177.872,301.278,177.872,189.419,177.872,189.419Z" transform="translate(-89.585 -116.181)" fill="#fff" fill-rule="evenodd"/>
          <g id="Group_8" data-name="Group 8" transform="translate(33.953 153.666)">
            <path id="Path_24" data-name="Path 24" d="M139.274,507.8s-5.7,4.77-7.717,6.237-.711,6.771-1.366,10.515-4.07,9.845-2.363,16.367,8.745,15.3,13.079,13.516,3.114-9.93,2.5-16.565S139.274,507.8,139.274,507.8Z" transform="translate(-125.581 -256.973)" fill="#051e44"/>
            <path id="Path_26" data-name="Path 26" d="M168.525,521.536s-3.425,5.436-3.425,8.546,3.431,7.12,4.753,11.354,5.1,12.993,14.31,14.887,10.954-1.612,9.967-4.662-10.035-13.1-10.035-13.1Z" transform="translate(-124.055 -256.417)" fill="#051e44"/>
            <g id="Path_28" data-name="Path 28" transform="translate(24.844 69.539)">
              <path id="Path_25" data-name="Path 25" d="M201.56,352.725s-9.293,67.172-12.692,87.564-8.5,88.308-8.5,92.9,9.652,18.189,9.337,20.028-7.576,3.807-12.093-1.355-10.533-14.673-10.533-17.374,2.085-7.2,2.085-9.647-4.17-48.983-2.085-62.5,0-128.786,0-128.786Z" transform="translate(-148.843 -333.557)" fill="#ffbe90" fill-rule="evenodd"/>
              <g id="Group_5969" data-name="Group 5969" transform="translate(0 42.874)">
                <path id="Path_34" data-name="Path 34" d="M165.73,490.138l26.153-36.38,8.786-71.167-51.14-7.826Z" transform="translate(-149.529 -374.765)" fill="#ed9276" fill-rule="evenodd"/>
              </g>
            </g>
            <g id="Path_37" data-name="Path 37" transform="translate(5.205 46.48)">
              <path id="Path_22" data-name="Path 22" d="M142.72,317.469c-3.662,15.284,25.2,107.03,25.2,111.584s-10.2,23.385-13.734,34.969-8.8,40.668-10.948,44.926-5.433,7.248-6.724,10.61-5.182,14.443-5.817,21.334,6.276,9.907,9.825,9.907,2.556-2.114,4.2-8.408,4.861-19.461,7.143-25.549c1.036-2.764,7.447-20.421,15.892-34.823,10.143-17.3,23.4-42.682,24.188-47.048,1.452-8-1.619-114.411-1.619-114.411S146.381,302.184,142.72,317.469Z" transform="translate(-130.653 -311.394)" fill="#ffbe90" fill-rule="evenodd"/>
              <g id="Group_5970" data-name="Group 5970" transform="translate(17.498 79.623)">
                <path id="Rectangle_24" d="M147.471,387.923h55v23.316l-55,5.83Z" transform="translate(-147.471 -387.923)" fill="#ed9276" fill-rule="evenodd"/>
              </g>
            </g>
            <g id="Path_35" data-name="Path 35" transform="translate(11.877)">
              <path id="Path_16" data-name="Path 16" d="M152.033,272.873c-3.148,16.277-16.906,31.681-14.736,56.95s9.74,48.61,11.587,57.471,3.148,24.528,3.148,24.528l47.065-1.282s8.616-71.848,6.773-94.827-6.481-37.95-6.481-37.95S155.182,256.6,152.033,272.873Z" transform="translate(-137.066 -266.721)" fill="#051e44"/>
              <g id="Group_5971" data-name="Group 5971" transform="translate(17.634 13.466)">
                <path id="Path_35_2" data-name="Path 35_2" d="M154.015,282.553s20.428,5.175,33.039,3.33,14.2-4.632,15.513-6.221" transform="translate(-154.015 -279.663)" fill="none" stroke="#2f3c87" stroke-width="3.2"/>
                <path id="Path_36" data-name="Path 36" d="M181.562,283.955l.324,4.629s3.252-.358,4.877-.567,3.826-.554,3.826-.554l-.575-4.708Z" transform="translate(-152.901 -279.538)" fill="none" stroke="#504fc1" stroke-linecap="round" stroke-linejoin="round" stroke-width="0.8"/>
              </g>
            </g>
            <path id="Path_62" data-name="Path 62" d="M165.77,527.626c-1.627,3.331-1.638,9.48-2.336,12.1s-.84,3.2-.84,3.2.377,2.009,1.046,1,3.009-6.025,3.009-6.025,1.752.537,3.848,4.618,3.329,3,3.329,3-4.579-7.24-6.318-11.8S167.4,524.294,165.77,527.626Z" transform="translate(-124.156 -256.216)" fill="#051e44" fill-rule="evenodd"/>
            <path id="Path_62_Copy" data-name="Path 62 Copy" d="M136.423,510.333c-2.311,1.529-4.016,3.335-6.414,4.564s-3.748,2.083-3.748,2.083-1.288,1.58-.123,1.39,5.018-1.1,5.018-1.1-.031,1.288-.3,5.495S135.138,513.448,136.423,510.333Z" transform="translate(-125.65 -256.87)" fill="#051e44" fill-rule="evenodd"/>
          </g>
          <g id="Group" transform="translate(34.371 68.901)">
            <path id="Path_11" data-name="Path 11" d="M170.314,187.228c-4.254.735-37.439,8.483-39.216,10.346s1.658,21.247,5.8,32.031c7.981,20.79,11.979,35.455,11.135,50.932,10.68,2.884,37.3,9.806,52.453,1.218,0-14.6.322-25.961,1.855-34.712,3.648-4.152,3.29-9.721,2.959-13.113-.94-9.658-9.71-38.627-15.047-40.73S174.568,186.493,170.314,187.228Z" transform="translate(-125.867 -185.174)" fill="#ffbe90" fill-rule="evenodd"/>
            <g id="Group_5972" data-name="Group 5972">
              <path id="Path_29_Copy" data-name="Path 29 Copy" d="M157.919,196.262s11.02,9.374,22.373,9.374,7.386-11.761,7.386-11.761l34.671,24.9-16.034,68.183H136.545L126.052,201Z" transform="translate(-126.052 -184.902)" fill="#ed9276" fill-rule="evenodd" opacity="0.5"/>
              <path id="Path_29" data-name="Path 29" d="M157.919,197.262s11.02,9.374,22.373,9.374,7.386-11.761,7.386-11.761l34.671,24.9-16.034,68.183H136.545L126.052,202Z" transform="translate(-126.052 -184.861)" fill="#19ceaf" fill-rule="evenodd"/>
              <path id="Path_14" data-name="Path 14" d="M177.32,187.3c4.434,5.934,10.237,16.388,18.117,29.407s8.175,23.742,8.175,23.742l-4.781-50.259S172.884,181.368,177.32,187.3Z" transform="translate(-124 -185.25)" fill="#42308c" fill-rule="evenodd" opacity="0.2"/>
              <path id="Path_61" data-name="Path 61" d="M159.288,197.808s9.962,28.674,12.265,69.909-4.829,51.748-4.829,51.748L139,286.8Z" transform="translate(-125.528 -184.743)" fill="#42308c" fill-rule="evenodd" opacity="0.2"/>
            </g>
          </g>
          <path id="Path_27_Copy" data-name="Path 27 Copy" d="M177.3,188.83a64.554,64.554,0,0,1,13.77,17.683c6.005,11.221,11.818,20.841,11.818,27.411s-.5,30.358-.5,46.989,4.194,25.7,4.194,25.7a130.144,130.144,0,0,1-2.862-35.563,383.691,383.691,0,0,0,0-48.143c-.833-11.548-3.263-24-7.432-26.881S177.3,188.83,177.3,188.83Z" transform="translate(-89.608 -116.205)" fill="#757ae9" fill-rule="evenodd"/>
          <g id="Path_33" data-name="Path 33" transform="translate(21.073 72.822)">
            <path id="Mask_11" d="M157.02,189.019a136.977,136.977,0,0,1,11.118,46.25c1.7,26.715,1.3,36.109,0,48.225s-6.268,24.468-6.268,24.468a79.558,79.558,0,0,1-16.583,0c-7.531-1.022-8.433-3.623-8.433-3.623s9.748-14.97,9.748-29.361-8.643-39.848-12.568-52.46a90.824,90.824,0,0,1-3.557-25.917s1.868-1.39,6.378-2.369C150.973,191.167,157.02,189.019,157.02,189.019Z" transform="translate(-112.575 -189.019)" fill="#757ae9" fill-rule="evenodd"/>
            <g id="Group_5973" data-name="Group 5973" transform="translate(0 14.586)">
              <path id="Path_33_2" data-name="Path 33_2" d="M138.842,203.038s16.025,40.793,7,61.4S113.27,239.27,113.27,239.27Z" transform="translate(-113.27 -203.038)" fill="#fff" fill-rule="evenodd" opacity="0.3"/>
            </g>
          </g>
          <g id="Group_20" data-name="Group 20" transform="translate(0 79.98)">
            <path id="Path_38" data-name="Path 38" d="M133.193,279.663a11.063,11.063,0,0,0,3.249,3.472c2.035,1.3,3.6-.381,6.535-.9s5.054-.46,6.166.072,11.384,6.972,11.384,6.972-.4,1.815-3.05.538-6.747-3.76-7.743-4.155-2.475-1.18.441.642,9.859,5.53,9.859,5.53-.964,1.965-4.494-.046-8.009-4.6-8.009-4.6,3.38,2.729,5.142,3.9,3.642,2.546,3.642,2.546a2.6,2.6,0,0,1-3.1.546c-1.728-.955-6.373-4.321-6.373-4.321l5.95,5.515s-1.525,2.025-5.153-1-8.85,1.346-10.831.7-9.458-6.362-9.458-6.362Z" transform="translate(-91.628 -192.512)" fill="#ffbe90"/>
            <path id="Path_13" data-name="Path 13" d="M131.016,275.665l6.193,7.632-7.058,9.094-8.491-8.05Z" transform="translate(-91.858 -192.673)" fill="#19ceaf" fill-rule="evenodd"/>
            <path id="Path_12" data-name="Path 12" d="M131.966,196.32c-4.275,3.505-40.73,54.124-38.881,59.508,3.487,10.155,33.209,38.09,33.209,38.09l10.148-10.111s-17.9-25.394-21.144-28.871c9.568-12.911,27.534-29.728,28.438-33.286.782-3.077.3-10.688-2.237-16.449C138.71,198.86,134.2,194.485,131.966,196.32Z" transform="translate(-93.016 -195.899)" fill="#757ae9" fill-rule="evenodd"/>
          </g>
        </g>
        <g id="Group_10" data-name="Group 10" transform="translate(42.532 43.625)">
          <path id="Path_31" data-name="Path 31" d="M133.9,195.694a80.167,80.167,0,0,0,9.155,2.093c5.724,1.013,10.68,0,14.761-3.651s5.314-12.92,5.7-16.855-15-7.008-15-7.008Z" transform="translate(-133.895 -160.58)" fill="#051e44"/>
          <path id="Path_32" data-name="Path 32" d="M160.673,160.957c1.82,7.672,5.806,26.818,1.82,34.2s-23.812,1.6-23.812,1.6" transform="translate(-133.702 -160.957)" fill="none" stroke="#051e44" stroke-linecap="round" stroke-linejoin="round" stroke-width="0.64"/>
        </g>
      </g>
    </g>
    <g id="Group-10-Copy" transform="translate(445.124 284.796)">
      <g id="Combined-Shape" transform="translate(0 0)">
        <path id="Path_25084-2" data-name="Path 25084" d="M57.319.32a2.635,2.635,0,0,0-2.56.015A95.942,95.942,0,0,1,31.739,18.462,108.475,108.475,0,0,1,2.19,29.787,2.762,2.762,0,0,0,.793,32.2V61.48c.032,31.624,18.359,60.234,46.7,72.9l7.3,3.251a2.637,2.637,0,0,0,2.142,0l8.222-3.63c28.869-12.4,47.651-41.281,47.653-73.291V32.2a2.763,2.763,0,0,0-1.425-2.429A129.753,129.753,0,0,1,81.243,18.438C68.582,11.541,57.319.32,57.319.32Z" transform="translate(-0.793 0.004)"/>
        <path id="Path_25085-2" data-name="Path 25085" d="M57.319.32a2.635,2.635,0,0,0-2.56.015A95.942,95.942,0,0,1,31.739,18.462,108.475,108.475,0,0,1,2.19,29.787,2.762,2.762,0,0,0,.793,32.2V61.48c.032,31.624,18.359,60.234,46.7,72.9l7.3,3.251a2.637,2.637,0,0,0,2.142,0l8.222-3.63c28.869-12.4,47.651-41.281,47.653-73.291V32.2a2.763,2.763,0,0,0-1.425-2.429A129.753,129.753,0,0,1,81.243,18.438C68.582,11.541,57.319.32,57.319.32Z" transform="translate(-0.793 0.004)" fill="#fff"/>
      </g>
      <path id="Combined-Shape-2" data-name="Combined-Shape" d="M60.293,0A2.639,2.639,0,0,1,61.685.32S72.948,11.541,85.609,18.438A129.753,129.753,0,0,0,115.75,29.772a2.763,2.763,0,0,1,1.425,2.429h0V60.717c0,32.01-18.785,60.9-47.653,73.291h0l-8.222,3.63a2.623,2.623,0,0,1-1.007.225Z" transform="translate(-5.159 0.004)" fill="#fff"/>
      <path id="Combined-Shape-Copy-6" d="M60.293,3a2.528,2.528,0,0,1,1.423.3S72.524,14.092,84.673,20.721A124.376,124.376,0,0,0,113.6,31.614a2.656,2.656,0,0,1,1.368,2.335h0V61.357c0,30.765-18.025,58.528-45.727,70.441h0l-7.89,3.489a2.519,2.519,0,0,1-1.055.217Z" transform="translate(-5.158 -0.216)" fill="url(#linear-gradient)"/>
      <path id="Combined-Shape-Copy-5" d="M56.963,18.616V121.991a2.054,2.054,0,0,1-.684-.167h0l-5.613-2.438A59.735,59.735,0,0,1,14.741,64.709h0V42.749a2.063,2.063,0,0,1,1.075-1.81,84.751,84.751,0,0,0,22.73-8.493A73.443,73.443,0,0,0,56.254,18.851,2.069,2.069,0,0,1,56.963,18.616Z" transform="translate(-1.816 -1.363)" fill="#757ae9" opacity="0.1"/>
      <path id="Combined-Shape-3" data-name="Combined-Shape" d="M60.306,18.614a2.072,2.072,0,0,1,1.26.223s8.664,8.416,18.4,13.588a101.411,101.411,0,0,0,23.186,8.5,2.064,2.064,0,0,1,1.1,1.822h0V64.135A59.621,59.621,0,0,1,67.595,119.1h0l-6.325,2.722a2.063,2.063,0,0,1-.964.164Z" transform="translate(-5.159 -1.361)" fill="#757ae9" opacity="0.2"/>
      <path id="Combined-Shape-4" data-name="Combined-Shape" d="M50.28,119.308l5.553,2.438a2.032,2.032,0,0,0,1.63,0l6.257-2.722A59.633,59.633,0,0,0,99.981,64.058l0-21.255a2.064,2.064,0,0,1,.925,1.72h0V65.912a59.621,59.621,0,0,1-36.656,54.968h0L57.927,123.6a2.074,2.074,0,0,1-1.648,0h0l-5.613-2.438A59.735,59.735,0,0,1,14.741,66.484h0V64.631A59.759,59.759,0,0,0,50.28,119.308Z" transform="translate(-1.816 -3.137)" opacity="0.5" fill="url(#linear-gradient-2)"/>
      <path id="_-copy-2" data-name="$-copy-2" d="M60.7,99.453l.02-4.443c8.351-.612,13.129-5.39,13.129-11.787,0-7.285-6.5-10.109-11.629-11.372l-1.441-.375L60.823,58.8c3.692.494,6.219,2.547,6.594,5.785H73.3c-.158-6.022-5.133-10.523-12.458-11.115l.02-4.561H57.15l-.02,4.6c-7.088.711-12.28,5.133-12.28,11.51,0,5.627,4.028,8.924,10.523,10.681l1.7.454L57.032,89.6c-3.85-.474-6.831-2.567-7.147-6.377h-6.12c.375,6.811,5.291,11.194,13.248,11.787l-.02,4.443ZM57.091,70.489c-2.942-.869-6.18-2.429-6.16-5.824,0-2.962,2.349-5.272,6.18-5.844ZM60.743,89.6l.04-12.419c4.008,1.106,7.029,2.567,7.029,5.982C67.812,86.619,64.929,89.047,60.743,89.6Z" transform="translate(-3.946 -3.585)" fill="#f1f1fc"/>
      <path id="_" data-name="$" d="M60.7,97.453l.02-4.443c8.351-.612,13.129-5.39,13.129-11.787,0-7.285-6.5-10.109-11.629-11.372l-1.441-.375L60.823,56.8c3.692.494,6.219,2.547,6.594,5.785H73.3c-.158-6.022-5.133-10.523-12.458-11.115l.02-4.561H57.15l-.02,4.6c-7.088.711-12.28,5.133-12.28,11.51,0,5.627,4.028,8.924,10.523,10.681l1.7.454L57.032,87.6c-3.85-.474-6.831-2.567-7.147-6.377h-6.12c.375,6.811,5.291,11.194,13.248,11.787l-.02,4.443ZM57.091,68.489c-2.942-.869-6.18-2.429-6.16-5.824,0-2.962,2.349-5.272,6.18-5.844ZM60.743,87.6l.04-12.419c4.008,1.106,7.029,2.567,7.029,5.982C67.812,84.619,64.929,87.047,60.743,87.6Z" transform="translate(-3.946 -3.439)" fill="#19ceaf"/>
      <path id="Combined-Shape-5" data-name="Combined-Shape" d="M62.075,46.909l-.02,4.561c7.325.592,12.3,5.094,12.458,11.116H68.629c-.375-3.238-2.9-5.291-6.594-5.785h0L62,69.476l1.441.375c5.133,1.264,11.629,4.087,11.629,11.372,0,6.4-4.778,11.175-13.129,11.787h0l-.02,4.443H60.292V46.908ZM62,75.182,61.956,87.6c4.186-.553,7.068-2.981,7.068-6.436,0-3.416-3.021-4.877-7.029-5.982Z" transform="translate(-5.158 -3.439)" fill="#757ae9" fill-rule="evenodd"/>
    </g>
  </g>
</svg>
